<svg height="512" viewBox="0 0 512 512" width="512" xmlns="http://www.w3.org/2000/svg"><g><path d="m464 240h-16v-80a8 8 0 0 0 -8-8h-24v-136a8 8 0 0 0 -8-8h-304a8 8 0 0 0 -8 8v136h-24a8 8 0 0 0 -8 8v32h-16a8 8 0 0 0 -8 8v296a8 8 0 0 0 8 8h416a8 8 0 0 0 8-8v-248a8 8 0 0 0 -8-8zm-48-72h16v72h-16zm-304-144h288v216h-194.23l-14.18-42.53a8 8 0 0 0 -7.59-5.47h-72zm-32 144h16v24h-16zm376 320h-400v-280h122.23l14.18 42.53a8 8 0 0 0 7.59 5.47h256z"/><path d="m280 352v-16a8 8 0 0 0 -8-8h-32a8 8 0 0 0 -8 8v16h-16a8 8 0 0 0 -8 8v32a8 8 0 0 0 8 8h16v16a8 8 0 0 0 8 8h32a8 8 0 0 0 8-8v-16h16a8 8 0 0 0 8-8v-32a8 8 0 0 0 -8-8zm8 32h-16a8 8 0 0 0 -8 8v16h-16v-16a8 8 0 0 0 -8-8h-16v-16h16a8 8 0 0 0 8-8v-16h16v16a8 8 0 0 0 8 8h16z"/><path d="m256 296a80 80 0 1 0 80 80 80.091 80.091 0 0 0 -80-80zm0 144a64 64 0 1 1 64-64 64.072 64.072 0 0 1 -64 64z"/><path d="m136 104h56a8 8 0 0 0 8-8v-48a8 8 0 0 0 -8-8h-56a8 8 0 0 0 -8 8v48a8 8 0 0 0 8 8zm8-48h40v32h-40z"/><path d="m216 56h160a8 8 0 0 0 0-16h-160a8 8 0 0 0 0 16z"/><path d="m216 80h160a8 8 0 0 0 0-16h-160a8 8 0 0 0 0 16z"/><path d="m216 104h96a8 8 0 0 0 0-16h-96a8 8 0 0 0 0 16z"/><path d="m336 88a8 8 0 0 0 0 16h16a8 8 0 0 0 0-16z"/><path d="m136 184h56a8 8 0 0 0 8-8v-48a8 8 0 0 0 -8-8h-56a8 8 0 0 0 -8 8v48a8 8 0 0 0 8 8zm8-48h40v32h-40z"/><path d="m216 136h160a8 8 0 0 0 0-16h-160a8 8 0 0 0 0 16z"/><path d="m216 160h160a8 8 0 0 0 0-16h-160a8 8 0 0 0 0 16z"/><path d="m216 184h96a8 8 0 0 0 0-16h-96a8 8 0 0 0 0 16z"/><path d="m352 168h-16a8 8 0 0 0 0 16h16a8 8 0 0 0 0-16z"/></g></svg>